<?xml version="1.0" standalone="no"?><!DOCTYPE svg PUBLIC "-//W3C//DTD SVG 1.1//EN" "http://www.w3.org/Graphics/SVG/1.1/DTD/svg11.dtd"><svg t="1586185292505" class="icon" viewBox="0 0 1025 1024" version="1.1" xmlns="http://www.w3.org/2000/svg" p-id="31127" xmlns:xlink="http://www.w3.org/1999/xlink" width="300.29296875" height="300"><defs><style type="text/css"></style></defs><path d="M1014.863754 128.154205a112.678647 112.678647 0 0 1 7.550301 24.570472 138.912745 138.912745 0 0 1 2.943338 29.177435 85.612737 85.612737 0 0 1-5.886676 30.457147 92.011297 92.011297 0 0 1-18.555825 29.177435c-9.341898 9.405884-17.660026 17.532055-25.018371 24.570472s-13.756905 13.309005-19.195681 18.683796-12.157265 11.64538-17.468069 16.4443l-217.551051-218.638806c9.341898-8.510085 20.411407-18.811767 33.272513-31.033018s23.482716-21.627134 31.992802-28.601564a98.921743 98.921743 0 0 1 33.784398-18.107926 106.152116 106.152116 0 0 1 34.360269-4.606964 126.75548 126.75548 0 0 1 32.504687 5.374791 171.481417 171.481417 0 0 1 27.385838 10.493639 218.126921 218.126921 0 0 1 54.195806 44.789922 263.940613 263.940613 0 0 1 45.941663 67.056912z" p-id="31128"></path><path d="M107.739857 699.2897c4.606963-4.606963 15.612487-15.86843 32.504686-33.400485s38.391362-39.159189 63.985603-65.009373l429.59934-431.710865 217.551051 219.918518-250.247694 251.655378-93.163038 94.698693q-46.581519 45.685721-83.82114 83.629183t-61.746108 62.57792c-16.316329 16.4443-25.594241 25.594241-29.049463 28.08968a439.261166 439.261166 0 0 1-26.809968 22.139019 145.503262 145.503262 0 0 1-31.416931 18.61981 468.118673 468.118673 0 0 1-47.797246 19.963508 1564.895898 1564.895898 0 0 1-130.97853 41.91057 442.076533 442.076533 0 0 1-45.941663 10.493639q-31.416931 3.583194-41.91057-9.405883a55.347547 55.347547 0 0 1-5.886676-43.190282 452.8901 452.8901 0 0 1 11.005524-47.477318c6.078632-21.435177 12.285236-42.998325 18.555825-64.433503s12.797121-42.614412 19.195681-61.490164a275.138094 275.138094 0 0 1 15.036617-38.391362 191.95681 191.95681 0 0 1 15.804444-29.881277 222.030043 222.030043 0 0 1 25.018371-29.369392z" p-id="31129"></path><path d="M460.492487 955.168127a63.985603 63.985603 0 1 0 63.985603-63.985603 63.985603 63.985603 0 0 0-63.985603 63.985603z" p-id="31130"></path><path d="M644.643053 955.168127a63.985603 63.985603 0 1 0 63.985604-63.985603 63.985603 63.985603 0 0 0-63.985604 63.985603z" p-id="31131"></path><path d="M828.921591 955.168127a63.985603 63.985603 0 1 0 63.985603-63.985603 63.985603 63.985603 0 0 0-63.985603 63.985603z" p-id="31132"></path><path d="M8.8821 1013.714954a55.219576 55.219576 0 0 1-5.886676-43.190282 464.023595 464.023595 0 0 1 11.005524-47.477318c6.39856-21.435177 12.349221-42.998325 18.61981-64.433502s12.797121-42.614412 19.195681-61.490165a270.467145 270.467145 0 0 1 15.036617-38.391362 197.395586 197.395586 0 0 1 15.804444-29.881276 223.949611 223.949611 0 0 1 25.018371-29.369392c4.606963-4.606963 15.676473-15.86843 32.504686-33.464471s38.391362-39.031218 63.985604-64.945387L633.765501 169.360934l217.551051 219.918518-250.247694 251.655378-93.163039 94.698692q-46.581519 45.749706-83.82114 83.693169t-61.746107 62.57792c-16.380314 16.4443-25.914169 25.594241-29.049464 28.025695-7.742258 7.038416-16.700242 14.396761-26.809968 22.139018a148.510585 148.510585 0 0 1-31.416931 18.683797 485.650729 485.650729 0 0 1-47.797246 19.899522c-20.987278 7.742258-42.806369 15.292559-65.7772 22.714889s-44.789922 13.884876-65.265315 19.195681a449.370892 449.370892 0 0 1-45.941663 10.557625 109.543353 109.543353 0 0 1-12.797121 0.767827 35.831938 35.831938 0 0 1-28.601564-10.173711z m820.039491-58.482841a63.985603 63.985603 0 1 1 63.985603 63.985603 63.985603 63.985603 0 0 1-63.985603-63.985603z m-184.278538 0a63.985603 63.985603 0 1 1 63.985604 63.985603 63.985603 63.985603 0 0 1-63.985604-63.985603z m-184.08658 0a63.985603 63.985603 0 1 1 63.985603 63.985603 63.985603 63.985603 0 0 1-63.985603-63.985603zM721.425777 82.596456c9.405884-8.510085 20.475393-18.811767 33.272514-31.033018s23.482716-21.563148 31.992802-28.601564a98.6658 98.6658 0 0 1 33.784398-18.107926 106.919943 106.919943 0 0 1 34.360269-4.670949 129.442875 129.442875 0 0 1 32.504686 5.37479 174.424754 174.424754 0 0 1 27.321853 10.557625 218.574821 218.574821 0 0 1 54.195806 44.789922 262.340973 262.340973 0 0 1 45.941663 67.056912 113.318503 113.318503 0 0 1 7.550301 24.506487 139.040716 139.040716 0 0 1 2.943338 29.113449 85.100852 85.100852 0 0 1-5.886676 30.457147 91.24347 91.24347 0 0 1-18.61981 29.177435c-9.341898 9.469869-17.596041 17.596041-25.018371 24.506486s-13.756905 13.309005-19.195681 18.683796c-6.39856 6.39856-12.157265 11.64538-17.532055 16.508286z" p-id="31133"></path></svg>