<?xml version="1.0" standalone="no"?><!DOCTYPE svg PUBLIC "-//W3C//DTD SVG 1.1//EN" "http://www.w3.org/Graphics/SVG/1.1/DTD/svg11.dtd"><svg t="1586186988774" class="icon" viewBox="0 0 1109 1024" version="1.1" xmlns="http://www.w3.org/2000/svg" p-id="52165" xmlns:xlink="http://www.w3.org/1999/xlink" width="324.90234375" height="300"><defs><style type="text/css"></style></defs><path d="M705.135905 853.688859c17.577202 38.3968 43.004416 72.185985 76.281644 101.196901 33.277227 29.010916 85.496875 51.878343 156.658945 68.516956H169.713857a169.799183 169.799183 0 0 1-169.799183-169.713857h705.221231zM939.441713 0a169.799183 169.799183 0 0 1 169.287226 157.00025L1109.240897 169.799183h-170.652446v769.64253a221.592201 221.592201 0 0 1-111.350721-63.909341 221.080243 221.080243 0 0 1-59.045746-107.084409H85.326223V170.652446a170.652446 170.652446 0 0 1 170.652445-170.652446h683.548371z" p-id="52166"></path></svg>