<?xml version="1.0" standalone="no"?><!DOCTYPE svg PUBLIC "-//W3C//DTD SVG 1.1//EN" "http://www.w3.org/Graphics/SVG/1.1/DTD/svg11.dtd"><svg t="1586332794646" class="icon" viewBox="0 0 1024 1024" version="1.1" xmlns="http://www.w3.org/2000/svg" p-id="2539" xmlns:xlink="http://www.w3.org/1999/xlink" width="300" height="300"><defs><style type="text/css"></style></defs><path d="M75.851852 303.407407h189.629629a37.925926 37.925926 0 0 1 37.925926 37.925926v644.740741a37.925926 37.925926 0 0 1-37.925926 37.925926H75.851852a37.925926 37.925926 0 0 1-37.925926-37.925926V341.333333a37.925926 37.925926 0 0 1 37.925926-37.925926z m37.925926 75.851852h113.777778a18.962963 18.962963 0 0 1 18.962963 18.962963v37.925926a18.962963 18.962963 0 0 1-18.962963 18.962963H113.777778a18.962963 18.962963 0 0 1-18.962963-18.962963v-37.925926a18.962963 18.962963 0 0 1 18.962963-18.962963z"  p-id="2540"></path><path d="M417.185185 189.62963h189.62963a37.925926 37.925926 0 0 1 37.925926 37.925926v758.518518a37.925926 37.925926 0 0 1-37.925926 37.925926H417.185185a37.925926 37.925926 0 0 1-37.925926-37.925926V227.555556a37.925926 37.925926 0 0 1 37.925926-37.925926z m37.925926 132.74074h113.777778a18.962963 18.962963 0 0 1 18.962963 18.962963v37.925926a18.962963 18.962963 0 0 1-18.962963 18.962963h-113.777778a18.962963 18.962963 0 0 1-18.962963-18.962963v-37.925926a18.962963 18.962963 0 0 1 18.962963-18.962963z m-9.481481-56.888889h132.74074a9.481481 9.481481 0 0 1 0 18.962963h-132.74074a9.481481 9.481481 0 0 1 0-18.962963z"  p-id="2541"></path><path d="M720.592593 151.703704m37.925926 0l189.629629 0q37.925926 0 37.925926 37.925926l0 796.444444q0 37.925926-37.925926 37.925926l-189.629629 0q-37.925926 0-37.925926-37.925926l0-796.444444q0-37.925926 37.925926-37.925926Z"  p-id="2542"></path></svg>