<?xml version="1.0" standalone="no"?><!DOCTYPE svg PUBLIC "-//W3C//DTD SVG 1.1//EN" "http://www.w3.org/Graphics/SVG/1.1/DTD/svg11.dtd"><svg t="1586184077543" class="icon" viewBox="0 0 1024 1024" version="1.1" xmlns="http://www.w3.org/2000/svg" p-id="20317" xmlns:xlink="http://www.w3.org/1999/xlink" ><defs><style type="text/css"></style></defs><path d="M158.03904 899.9936c9.47712-2.65216 21.77024-7.54688 30.22848-11.15648-8.48384 3.47136-20.7616 8.46848-30.22848 11.15648z m325.632-183.87968z m-332.4928 185.45664l0.90112-0.13824-0.90112 0.13824z m6.35392-1.42848l0.50688-0.14336c-0.16896 0.04096-0.34304 0.09728-0.50688 0.14336z m336.36352-189.74208c-0.08704 0.0512-0.16896 0.10752-0.256 0.1536 0.08704-0.04608 0.17408-0.1024 0.256-0.1536z m-338.5344 190.3104z m275.04128-166.15424a186.29632 186.29632 0 0 0 43.15136-13.53216 185.32352 185.32352 0 0 1-43.53536 13.53216h0.384z m43.77088-13.81888c-0.20992 0.09728-0.4096 0.19968-0.61952 0.29184 0.20992-0.09728 0.4096-0.19968 0.61952-0.29184z m-322.09408 180.69504l0.01536-0.00512c0.99328-0.1792 2.08384-0.42496 3.21024-0.70144l0.05632-0.01536a61.2352 61.2352 0 0 1-3.28192 0.72192z m332.24704-185.66656l-0.65024 0.34816 0.65024-0.34816z m-333.14816 185.8048a23.00416 23.00416 0 0 0-0.01024 0h0.01024z m342.46656-191.01696zM937.10336 8.92928H90.73152c-28.50816 2.59584-49.69984 24.15616-49.69984 50.2272v901.05344c0 27.4176 24.85248 50.13504 55.25504 50.13504h889.83552V59.15648c0.7168-26.43968-20.80256-47.63136-49.01888-50.2272z m-95.32928 339.41504c0.74752-0.0512 1.51552-0.01536 2.27328-0.01536 15.44192 0.32768 32.96256 11.20256 41.37472 21.2224-4.30592-5.15584-10.98752-10.55232-18.4832-14.63296 12.8 6.84032 23.17824 17.42848 23.8592 24.23296 0.3072 4.23936-6.74304 5.9136-11.45344 8.2944 4.75136-2.46784 11.96032-4.26496 11.07968-8.2944 0.44032 5.5552-11.8528 6.70208-14.75584 10.80832 23.7056 4.8128 29.33248 29.72672 31.488 50.16064 10.8032 98.16576-64.14848 241.64864-186.89024 263.56736h0.39936c-4.41344 0.768-8.576 1.23392-13.056 1.23392-40.00256-0.46592-67.44576-39.87968-71.92576-79.27296-6.29248-57.53856 23.71072-125.17888 57.17504-170.9568a257.57184 257.57184 0 0 1 16.5632-20.07552 256.95744 256.95744 0 0 1 0.24064-0.24576c41.46176-45.47072 101.53984-82.75968 130.31424-86.016h1.79712zM176.73728 168.45312h0.36864c0-3.89632 1.18784-7.5264 3.24096-10.5472a19.7632 19.7632 0 0 1 14.1056-8.23296c0.65536-0.06656 1.29024-0.19456 1.96608-0.19456h591.37024c10.34752 0 19.29216 8.53504 19.29216 18.9696v2.22208c0 0.36864-0.09216 0.71168-0.10752 1.0752a19.86048 19.86048 0 0 1-8.54528 14.73536 19.4304 19.4304 0 0 1-10.63424 3.15392H196.02432a19.38432 19.38432 0 0 1-19.29216-18.9696v-2.21184z m341.31456 221.96736h0.16896c1.08032-0.4608 2.2016-1.23392 3.33824-1.60256 0.37376-0.31744 0.75776-0.31744 1.14176-0.68096l2.2016-1.14176 2.22208-1.14176c0.36864 0 0.75264-0.37376 1.13152-0.37376 8.15104-3.36384 15.5904-5.18656 21.43744-5.8624h1.14176c20.77696-1.91488 48.18944 19.63008 49.3056 30.83264 0.15872 2.05824-1.44896 3.51232-3.68128 4.736-3.77856 1.84832-8.9088 3.22048-11.10528 5.63712 0.1024 0.02048 0.18432 0.05632 0.28672 0.0768-0.09216 0.10752-0.2048 0.21504-0.28672 0.32256a32.4864 32.4864 0 0 1 12.56448 5.06368c13.32224 9.61024 17.2288 28.5184 18.9184 44.6976 8.75008 79.65696-38.98368 189.27104-122.9312 239.4112 77.63456-46.26432 124.40064-142.94016 124.32384-220.3136 0.29184 96.7168-72.69888 223.92832-187.81696 244.8384-4.41344 0.71168-8.51968 1.17248-12.99968 1.17248-40.064-0.46592-67.51232-39.78752-71.92064-79.21152-6.2976-57.61024 23.72096-125.24032 57.09312-170.9568 23.72096-32.41472 59.68896-62.51008 91.54048-82.176 0.26624-0.26624 0.69632-0.54272 1.05984-0.84992a1.45408 1.45408 0 0 0 0.87552-0.6656l2.85184-1.82272c6.70208-3.76832 12.99456-7.47008 18.93376-9.99936h0.14848c-5.64736 2.56-11.67872 6.0672-17.94048 9.6a237.02528 237.02528 0 0 1 17.9968-9.58976z m92.04224 50.71872c3.94752 8.32 5.79584 18.06848 6.78912 27.17184-1.09568-9.0624-2.97472-18.816-6.78912-27.17184z m-433.3568-170.52672h0.36864c0-3.72224 1.12128-7.17312 3.00544-10.10688A19.78368 19.78368 0 0 1 194.56 251.87328c0.61952-0.05632 1.21856-0.18432 1.85344-0.18432h294.35904a19.584 19.584 0 0 1 18.71872 15.05792c-0.09216-0.38912-0.15872-0.78848-0.26624-1.17248 0.11264 0.39936 0.18944 0.80896 0.2816 1.21856l0.00512 0.03584c0.28672 1.22368 0.50688 2.47296 0.50688 3.78368v2.26816c0 1.07008-0.14336 2.10432-0.31744 3.1232-0.03584 0.24064-0.03584 0.49664-0.08704 0.73728-1.79712 8.59648-9.47712 15.10912-18.84672 15.10912H196.02432a19.3792 19.3792 0 0 1-19.29216-18.9696v-2.26816zM116.352 733.44a13.35296 13.35296 0 0 1-0.32768-2.67776c0.05632 0.70144 0.11264 1.39264 0.26624 1.9712 0-1.14176-0.2048-2.6112-0.30208-4.0704l-0.00512-0.39936c-0.67584-24.69888 11.16672-70.05184 21.3504-95.85152-7.29088 18.57024-15.31392 47.20128-19.11808 71.10144 4.41856-27.62752 14.53056-61.76768 22.55872-79.00672A1583.86688 1583.86688 0 0 1 219.7504 478.45888l-1.06496-0.768-46.75072 23.79776 46.75072-24.1664-46.75072 23.79776c-2.20672 1.42336-11.1104 6.2976-13.31712 6.66624-3.8912 0.35328-4.9664-3.82464-5.18656-7.39328a20.61824 20.61824 0 0 0-0.04608-1.55136v-2.2272c-0.37376-14.81728 9.27744-20.37248 20.75648-28.95872 15.1552-10.9568 64.64-47.91808 81.98144-52.992 0.92672-0.25088 1.82272-0.47616 2.55488-0.53248 1.664-0.18944 3.328 0.06144 4.9664 0.65024 11.3152 4.2752 21.87776 25.28256 22.53824 32.07168 0.26624 1.69472 0.37376 3.42528 0.31232 5.18656 0 11.48416-7.43936 26.05056-64.8448 153.10848a1356.00128 1356.00128 0 0 0-13.19424 29.824c-10.92608 25.1136-23.27552 56.576-28.92288 82.28864-2.00704 8.71936-3.2768 16.768-3.48672 23.6544 0 2.56 0 4.78208 0.36864 7.00416 0-0.7424-0.0768-1.49504-0.14336-2.24768 0.11776 1.11104 0.25088 2.2272 0.47104 3.328 0.75776 5.19168 2.26816 9.99936 2.944 15.25248 0 0.37376 0 0.7424 0.38912 1.11104v1.54624c0 0.43008-0.38912 0.73728 0 1.11616v0.3072c-0.75776 2.9952-2.57536 4.8128-6.31296 5.24288-2.64192 0.40448-8.50432-2.24768-11.15648-3.328-21.07392-9.29792-43.35104-10.43968-46.25408-36.80768z m22.6816-105.22112c-0.26112 0.6144-0.52224 1.25952-0.78848 1.90464 0.26624-0.64 0.52736-1.29024 0.78848-1.90464z m16.5888-121.14944c0.14336 0.13824 0.2816 0.2816 0.44032 0.39424-0.15872-0.11264-0.29696-0.256-0.44032-0.39424z m1.13152 0.75264c0.14848 0.06144 0.2816 0.14336 0.44032 0.18944-0.15872-0.04096-0.29184-0.128-0.44032-0.18944z m-1.57696-1.2544z m-0.67072-1.14688a8.20224 8.20224 0 0 1-0.29696-0.72192c0.09216 0.25088 0.19456 0.4864 0.29696 0.72192z m-0.48128-1.32096c-0.0768-0.27648-0.15872-0.54784-0.22016-0.83968 0.06144 0.28672 0.14336 0.55808 0.22016 0.83968z m-5.9904 397.7984l0.16384-0.01536c-1.23904 0.0256-2.24256-0.10752-2.94912-0.45056-4.85888-2.16064-6.6816-4.80768-7.07072-6.96832a5.54496 5.54496 0 0 1 0.1536-1.4848c0.53248-2.5856 2.83136-5.01248 4.6592-6.5536 1.24928-1.01888 2.25792-1.62816 2.25792-1.62816s230.21568-111.59552 656.92672-137.216c0 0-37.47328 4.87936-57.4464 8.2432 0 0 75.25888-6.39488 117.51936-8.2432 0 0-355.88096 28.59008-664.0128 137.216 0 0-4.02432 1.82784-9.64608 4.0448-9.51296 3.968-23.54688 9.50784-33.28 11.88352-1.13152 0.2816-2.20672 0.51712-3.21024 0.70144a16.384 16.384 0 0 1-0.92672 0.14336 22.912 22.912 0 0 1-2.97472 0.31744c-0.0512-0.00512-0.11776 0.01024-0.16384 0.01024z m109.88544 13.6192s-29.8496 13.52192-45.00992 16.6144c-3.456 0.69632-6.17472 0.84992-7.60832 0.1792-4.85888-2.23232-6.6816-4.82304-7.07072-7.04-0.02048-0.29696 0.06144-0.57856 0.09216-0.8704 0.3072-3.15904 3.584-6.25152 5.55008-7.81312 0.82432-0.60928 1.42848-0.97792 1.42848-0.97792s230.21056-111.52384 656.94208-137.15456c0 0-35.97312 4.62336-56.18176 7.95136l-1.6128 0.13824 1.50528-0.12288-1.1264 0.18432s9.1904-0.80384 22.93248-1.92c22.46656-1.75104 56.85248-4.30592 83.47136-5.74976 3.16928-0.1536 6.22592-0.29184 9.14432-0.40448-25.10336 2.10944-341.51424 30.14144-629.28384 125.66016-11.10016 3.67104-22.1696 7.44448-33.17248 11.32544z m406.69184-102.4512c138.49088-24.20224 241.89952-33.37216 255.77472-34.53952l1.95584-0.0768c-0.17408-0.03072-108.66688 8.58112-257.73056 34.61632z m-109.37856 21.02784z m22.1952-4.57728z m18.42688-3.6864z m17.78688-3.44576z m17.29024-3.25632z m17.05472-3.11296zM509.5168 266.8288l-0.00512-0.03584c0-0.01536-0.01024-0.0256-0.01536-0.04096a4.82816 4.82816 0 0 0 0.03072 0.128l-0.01024-0.0512z m0.50176 3.78368a17.2544 17.2544 0 0 0-0.49664-3.73248c0.27648 1.2032 0.45056 2.45248 0.49664 3.73248z m126.16704 354.72896c4.35712 39.33184 31.85664 78.71488 71.92576 79.11424-40.06912-0.768-67.0464-40.09984-71.61344-79.11424-6.72768-57.7024 23.67488-124.93312 56.73984-171.04896-33.34656 45.71648-63.47264 113.34656-57.05216 171.04896zM496.3328 402.29888c1.1264-0.83456 2.57536-1.57184 3.34336-2.2784l-3.34336 2.2784z m-150.15424 254.21824c4.10624 39.38816 31.54944 78.81728 71.54688 79.11936-39.99744-0.3072-67.13344-39.7312-71.54688-79.11936z m57.09312-171.04896c-33.37216 45.7472-63.77984 113.41312-57.09312 171.04896-6.29248-57.63584 23.72096-124.928 57.09312-171.04896z m91.5456-82.08384c-32.24064 19.6608-67.81952 49.75616-91.54048 82.08384 23.71584-31.9488 59.29472-62.04416 91.54048-82.08384z m-306.54976 485.45792c5.94432-2.21696 9.6-4.0448 9.6-4.0448s-3.65568 1.76128-9.6 4.0448z m-72.28928-160.58368c-0.08192-6.9632 0.75776-15.49824 2.23232-24.75008-1.4848 9.28256-2.32448 17.82784-2.23232 24.75008z m60.43136 19.6608c0 0.43008 0 0.79872 0.32768 1.14688 0-0.7168-0.32768-1.14688-0.32768-1.14688zM887.36256 372.0704z m-162.78016 147.29216c-21.45792 34.68288-30.80704 68.74624-30.61248 96.5888-0.03072-28.02688 9.27744-62.02368 30.61248-96.5888z m86.56896-89.24672c-39.48544 27.71968-67.72736 58.70592-86.56896 89.24672 18.88256-30.53568 47.1552-61.55264 86.56896-89.24672z m-116.8128 185.77408v4.8128c0.02048 0.48128 0.06656 1.04448 0.10752 1.61792-0.04096-0.39936-0.08704-0.82944-0.10752-1.1776v0.45568c0.39936 9.60512 6.02624 39.424 20.37248 37.57056 7.09632-0.91648 17.47968-6.36928 27.648-13.15328-10.112 6.60992-20.47488 11.87328-27.648 12.7232-8.20224 0.80384-13.41952-8.28928-16.53248-18.07872 3.1744 9.728 8.47872 18.6368 16.53248 17.6128 15.62624-1.44384 46.40256-24.54528 56.67328-36.76672l45.32224-51.33312c19.26144-26.38848 54.48192-88.44288 53.34528-123.01824 0-1.11104 0-2.28864-0.36864-3.36384 0-0.40448 0-1.08032-0.36352-1.8176a48.99328 48.99328 0 0 0-6.33856-17.16736 25.14944 25.14944 0 0 0-2.3552-2.83648c-3.52256-3.95264-8.07936-6.46656-13.54752-5.62176 4.82304-0.4864 8.92928 1.30048 12.25728 4.3776-3.21024-2.86208-7.36256-4.87424-12.25728-4.3776a23.1424 23.1424 0 0 0-11.84256 5.5552 79.13472 79.13472 0 0 0-9.97376 10.0608c-3.33312 3.70688-5.98528 6.64064-7.74656 6.64064-0.09216 0.00512-0.15872-0.0256-0.25088-0.0256 1.81248-0.49152 4.30592-3.0208 7.56736-6.5536-3.36384 3.33312-5.92896 6.29248-7.75168 6.29248-1.37216 0.12288-2.47808-0.5632-3.3536-1.62304-1.4848-1.92-2.2016-4.8384-2.2016-6.64576a19.90656 19.90656 0 0 1-0.34304 0.24576l-0.03072-0.18944 0.0256 0.18944c-83.88608 59.12064-117.20704 132.94592-116.8384 185.59488z m-166.08768-230.03648c0.31232 0 0.75264-0.37376 1.08032-0.37376-0.32768 0-0.77312 0-1.08032 0.37376z m243.13856 236.11904c-5.76 6.54336-17.24928 16.18944-29.02528 24.04352 11.90912-7.79264 23.47008-17.44896 29.02528-24.04352z m98.66752-174.07488c1.19808 34.60096-34.08384 96.65024-53.34528 123.10528 19.25632-26.3936 54.85056-88.89856 53.34528-123.10528z m-465.27488 192.67584c2.05824-52.1472 36.08576-122.72128 116.77696-179.58912-80.6912 56.84224-114.71872 127.44192-116.77696 179.58912z m157.7472-192.90624z m-137.74336 242.24768a10.05568 10.05568 0 0 1-2.23232-0.1024c0.71168 0.128 1.45408 0.17408 2.23232 0.1024z m-19.6096-39.0144v1.8176c0.3072 4.90496 1.81248 14.90432 4.79744 23.0912 0.74752 2.19136 1.88416 4.03968 2.64192 5.95456 0.6912 1.42336 1.83296 2.65728 2.5856 3.712 0.36352 0.4864 0.81408 0.87552 1.24416 1.29024a20.63872 20.63872 0 0 1-1.68448-1.664c2.14016 2.688 4.75136 4.34688 7.79776 4.71552a11.1872 11.1872 0 0 1-2.02752-0.55808c1.36192 0.46592 2.78528 0.74752 4.26496 0.66048 7.82336-0.71168 19.30752-6.97344 30.40768-14.51008l3.84512-2.78016c1.2544-0.88064 2.5088-1.75616 3.69152-2.66752l4.3264-3.1232a195.8912 195.8912 0 0 0 10.01984-8.55552l4.864-4.7872 45.2352-51.36384c19.3024-26.76736 54.8864-89.89696 53.44256-124.09856v-2.28864c-0.63488-4.992-2.63168-11.88352-6.05184-17.60256-2.82112-4.93056-6.72768-9.01632-11.82208-10.40384 2.66752 0.76288 5.01248 2.304 7.04512 4.352-2.70848-2.54976-5.91872-4.2752-9.6768-4.49536h-2.65728c-12.93312 1.5104-24.41728 21.94944-29.58848 22.31808a3.84 3.84 0 0 1-2.74432-0.85504 3.31264 3.31264 0 0 0 2.36032 0.48128 3.7888 3.7888 0 0 1-2.64704-0.75776c-0.17408-0.15872-0.34304-0.31232-0.50688-0.49152l-0.14848-0.14336c-1.54112-1.90976-2.2528-4.91008-2.2528-6.77888l-0.32768 0.24064c-85.35552 60.5696-118.7072 136.63232-116.43392 189.29152z m157.57312-203.16672l-0.22016-0.07168 0.22016 0.07168z m-147.9936 237.36832c-1.06496-1.14176-1.83808-2.59072-2.59584-3.7376 0.65024 1.39776 1.53088 2.62656 2.59584 3.7376z m142.40256-237.88544c-13.3888 1.5104-24.86784 21.91872-29.6704 22.31808 5.17632-0.39936 16.66048-20.80256 29.6704-22.31808z m-411.8272 315.89376c-14.55616-5.22752-26.88512-10.9312-29.04064-30.38208 2.15552 19.45088 14.48448 25.3184 29.04064 30.38208z m264.25344-88.06912c0.75264 2.2784 1.5104 4.56704 2.57536 6.016a33.41312 33.41312 0 0 1-2.57536-6.016z m-229.90336 92.91776c-0.73728 3.0208-2.944 4.80768-6.29248 5.18144 3.71712-0.3072 5.98528-2.16064 6.29248-5.18144z m-6.29248 5.18144a27.04384 27.04384 0 0 1-11.1104-3.97824c-5.68832-2.3552-11.4688-4.15232-16.94208-6.05184 5.47328 1.96096 11.25376 3.86048 16.94208 6.38976 2.5856 1.8176 8.51456 4.0704 11.1104 3.64032z" p-id="20318" ></path></svg>