<?xml version="1.0" standalone="no"?><!DOCTYPE svg PUBLIC "-//W3C//DTD SVG 1.1//EN" "http://www.w3.org/Graphics/SVG/1.1/DTD/svg11.dtd"><svg t="1586185819505" class="icon" viewBox="0 0 1303 1024" version="1.1" xmlns="http://www.w3.org/2000/svg" p-id="35884" xmlns:xlink="http://www.w3.org/1999/xlink" width="381.73828125" height="300"><defs><style type="text/css"></style></defs><path d="M1273.716364 309.015273L687.476364 552.354909c-19.688727 8.238545-52.130909 8.238545-71.959273 0L29.556364 309.015273c-39.424-16.384-39.424-43.101091 0-59.485091L615.703273 6.190545c19.735273-8.238545 52.130909-8.238545 71.959272 0l586.193455 243.339637c39.237818 16.384 39.237818 43.101091-0.139636 59.485091z"  p-id="35885"></path><path d="M680.215273 624.826182c-18.711273 9.402182-49.477818 9.402182-68.235637 0L168.354909 433.245091a20.48 20.48 0 0 0-28.718545 19.083636v383.581091c0 5.585455 2.187636 11.124364 6.283636 15.034182 37.934545 37.189818 252.276364 173.195636 502.085818 173.056 250.554182 0 447.767273-137.681455 488.029091-173.056a21.364364 21.364364 0 0 0 7.214546-15.732364l2.327272-379.345454a20.48 20.48 0 0 0-28.718545-19.269818l-436.596364 188.229818z m596.107636-42.123637a26.530909 26.530909 0 0 1-26.949818-25.786181v-251.810909a26.530909 26.530909 0 0 1 26.996364-25.832728 26.530909 26.530909 0 0 1 26.903272 25.832728v251.950545a26.530909 26.530909 0 0 1-26.949818 25.646545z" p-id="35886"></path></svg>