<?xml version="1.0" standalone="no"?><!DOCTYPE svg PUBLIC "-//W3C//DTD SVG 1.1//EN" "http://www.w3.org/Graphics/SVG/1.1/DTD/svg11.dtd"><svg t="1586187128765" class="icon" viewBox="0 0 1024 1024" version="1.1" xmlns="http://www.w3.org/2000/svg" p-id="53682" xmlns:xlink="http://www.w3.org/1999/xlink" width="300" height="300"><defs><style type="text/css"></style></defs><path d="M409.6 716.8h563.2a51.2 51.2 0 0 1 46.336 29.44A127.744 127.744 0 0 0 972.8 844.8c0 39.68 18.0224 75.1104 46.336 98.56A51.2 51.2 0 0 1 972.8 972.8H76.8A76.8 76.8 0 0 1 0 896v-102.4A76.8 76.8 0 0 1 76.8 716.8H153.6v204.8l128-128L409.6 921.6v-204.8z m0-332.8h563.2a51.2 51.2 0 0 1 46.336 29.44A127.744 127.744 0 0 0 972.8 512c0 39.68 18.0224 75.1104 46.336 98.56A51.2 51.2 0 0 1 972.8 640H409.6v-256z m-256 0v256H76.8A76.8 76.8 0 0 1 0 563.2V460.8a76.8 76.8 0 0 1 76.8-76.8H153.6zM153.6 307.2H76.8A76.8 76.8 0 0 1 0 230.4v-102.4A76.8 76.8 0 0 1 76.8 51.2H972.8a51.2 51.2 0 0 1 46.336 29.44A127.744 127.744 0 0 0 972.8 179.2c0 39.68 18.0224 75.1104 46.336 98.56A51.2 51.2 0 0 1 972.8 307.2H409.6V179.2A76.8 76.8 0 0 0 332.8 102.4h-102.4A76.8 76.8 0 0 0 153.6 179.2V307.2z m204.8-128v618.8032l-76.8-76.8-76.8 76.8V179.2a25.6 25.6 0 0 1 25.6-25.6h102.4a25.6 25.6 0 0 1 25.6 25.6z" p-id="53683" fill="#1296db"></path></svg>