<?xml version="1.0" standalone="no"?><!DOCTYPE svg PUBLIC "-//W3C//DTD SVG 1.1//EN" "http://www.w3.org/Graphics/SVG/1.1/DTD/svg11.dtd"><svg t="1586186647283" class="icon" viewBox="0 0 1024 1024" version="1.1" xmlns="http://www.w3.org/2000/svg" p-id="41092" xmlns:xlink="http://www.w3.org/1999/xlink" width="300" height="300"><defs><style type="text/css"></style></defs><path d="M200.203957 454.558055A121.273946 121.273946 0 0 0 78.89584 575.775049v326.905443A121.285337 121.285337 0 0 0 200.203957 1024h264.941485a11.5499 11.5499 0 0 0 10.980378-15.137886L298.036391 462.531358a11.5499 11.5499 0 0 0-10.980378-7.973303z m0 0M823.830195 454.558055h-86.772323a11.5499 11.5499 0 0 0-10.980378 7.973303L548.056408 1008.862114a11.5499 11.5499 0 0 0 10.980378 15.137886H823.830195a121.285337 121.285337 0 0 0 121.273946-121.296727v-326.905443A121.273946 121.273946 0 0 0 823.830195 454.558055z m29.94545 380.850537H700.300943a16.994527 16.994527 0 0 1 0-33.989054h153.463311a16.994527 16.994527 0 0 1 0 33.989054z m0 0M736.203589 224.118194A224.061219 224.061219 0 0 0 512.051247 0.000023C388.328358 0.000023 287.864734 100.235838 287.864734 224.118194s100.452234 224.10678 224.186513 224.10678 224.152342-100.418062 224.152342-224.10678z m0 0M504.556342 490.335407l-96.180821 80.724002a11.5499 11.5499 0 0 0-3.553815 12.426963l96.192211 295.01223a11.5499 11.5499 0 0 0 21.972147 0l96.249163-295.01223a11.5499 11.5499 0 0 0-3.553815-12.438353l-96.249164-80.724003a11.5499 11.5499 0 0 0-14.875906 0.011391z m7.426563-6.230567" p-id="41093"></path></svg>